# xmcd CD database file
#
# Track frame offsets:
#	150
#	12587
#	30760
#	46290
#	62920
#	79335
#	97327
#	109812
#	127140
#	148002
#	165235
#	180677
#	193945
#	209255
#	225697
#	242187
#	259662
#	278160
#	297287
#	320787
#
# Disc length: 4474 seconds
#
# Revision: 0
# Processed by: cddbd v1.5.1PL0 Copyright (c) Steve Scherf et al.
# Submitted via: CDex 1.50
#
DISCID=31117814
DTITLE=## - Die deutschen TopHits 1995
DYEAR=1995
DGENRE=Schlager
TTITLE0=David Hasselhoff - Du
TTITLE1=Howard Carpendale - Hey, versuch's noch mal mit mir
TTITLE2=Juergen Drews - Warum immer ich
TTITLE3=Claudia Jung and Rosanna - Domani l'amore vincera
TTITLE4=Roland Kaiser - Alles was du willst
TTITLE5=Matthias Reim - Im Himmel geht es weiter
TTITLE6=Michelle - Traumtaenzerball
TTITLE7=Bernhard Brink - Nie mehr (will ich ohne dich sein)
TTITLE8=Stefan Waggershausen - Louisiana
TTITLE9=Flippers - Der letzte Bolero
TTITLE10=Paldauer - Ich vermisse dich
TTITLE11=Tom Astor - Hungrige Herzen
TTITLE12=Ibo - Ich brauch dich in der Wirklichkeit (Ibiza 3)
TTITLE13=Edward Reekers - So schmeckt der Sommer
TTITLE14=Kristina Bach - Und die Erde steht still
TTITLE15=Andy Borg and Petry Frey - Ich kann nicht mehr leben ohne dich
TTITLE16=Judy Weiss - Geh' ich mit dir jetzt hoch
TTITLE17=Udo Juergens - Das ist dein Tag
TTITLE18=Brunner and Brunner (Im Namen der Liebe)
TTITLE19=Truck Stop - Emmylou, Emmylou
EXTD=YEAR: 1995
EXTT0=
EXTT1=
EXTT2=
EXTT3=
EXTT4=
EXTT5=
EXTT6=
EXTT7=
EXTT8=
EXTT9=
EXTT10=
EXTT11=
EXTT12=
EXTT13=
EXTT14=
EXTT15=
EXTT16=
EXTT17=
EXTT18=
EXTT19=
PLAYORDER=
